<svg width="433.633" height="433.633" xmlns="http://www.w3.org/2000/svg">

 <g>
  <title>background</title>
  <rect fill="none" id="canvas_background" height="602" width="802" y="-1" x="-1"/>
 </g>
 <g>
  <title>Layer 1</title>
  <g id="svg_1">
   <g id="svg_2">
    <g id="svg_3">
     <path id="svg_4" d="m388.749,47.038c-0.886,-0.036 -1.773,-0.042 -2.66,-0.017l-33.437,0l0,-28.735c0.001,-11.494 -10.971,-18.286 -22.465,-18.286l-30.824,0c-11.494,0 -19.853,6.792 -19.853,18.286l0,28.734l-125.388,0l0,-28.734c0,-11.494 -8.359,-18.286 -19.853,-18.286l-30.825,0c-11.493,0 -22.465,6.792 -22.465,18.286l0,28.734l-33.436,0c-21.344,-0.595 -39.129,16.226 -39.724,37.569c-0.025,0.886 -0.019,1.774 0.017,2.66l0,301.975c0,22.988 16.718,44.408 39.706,44.408l338.548,0c22.988,0 39.706,-21.42 39.706,-44.408l0,-301.975c0.874,-21.334 -15.713,-39.337 -37.047,-40.211zm-89.386,-26.14l32.392,0l0,57.469l-32.392,0l0,-57.469zm-195.918,0l29.78,0l0,57.469l-29.78,0l0,-57.469zm301.453,368.326c0,11.494 -7.314,23.51 -18.808,23.51l-338.547,0c-11.494,0 -18.808,-12.016 -18.808,-23.51l0,-222.04l376.163,0l0,222.04zm0,-301.975l0,59.037l-376.164,0l0,-59.037c-0.885,-9.77 6.318,-18.408 16.088,-19.293c0.904,-0.082 1.814,-0.094 2.72,-0.037l33.437,0l0,11.494c0,11.494 10.971,19.853 22.465,19.853l30.825,0c10.672,0.293 19.56,-8.122 19.853,-18.794c0.01,-0.353 0.01,-0.706 0,-1.059l0,-11.495l125.388,0l0,11.494c-0.293,10.672 8.122,19.56 18.794,19.853c0.353,0.01 0.706,0.01 1.059,0l30.825,0c11.494,0 22.465,-8.359 22.465,-19.853l0,-11.494l33.437,0c9.791,-0.617 18.228,6.82 18.845,16.611c0.057,0.906 0.045,1.816 -0.037,2.72z"/>
    </g>
   </g>
  </g>
  <g id="svg_5"/>
  <g id="svg_6"/>
  <g id="svg_7"/>
  <g id="svg_8"/>
  <g id="svg_9"/>
  <g id="svg_10"/>
  <g id="svg_11"/>
  <g id="svg_12"/>
  <g id="svg_13"/>
  <g id="svg_14"/>
  <g id="svg_15"/>
  <g id="svg_16"/>
  <g id="svg_17"/>
  <g id="svg_18"/>
  <g id="svg_19"/>
  <g  id="svg_42">
   <g  transform="matrix(0.44280658712722865,0,0,0.44280658712722865,-909.281196472398,-909.9373762182436) " id="svg_24">
    <g  id="svg_25">
     <path  id="svg_26" d="m2791.52331,2706.66547l-213.504,-212.8c-3.051,-3.029 -7.595,-3.904 -11.627,-2.304c-3.989,1.664 -6.571,5.547 -6.571,9.856l0,117.333l-266.666,0c-5.888,0.001 -10.667,4.779 -10.667,10.667l0,170.667c0,5.888 4.779,10.667 10.667,10.667l266.667,0l0,116.885c0,4.309 2.603,8.192 6.592,9.856c1.323,0.555 2.709,0.811 4.075,0.811c2.773,0 5.504,-1.088 7.552,-3.115l213.504,-213.419c2.005,-2.005 3.115,-4.715 3.115,-7.552c-0.001,-2.837 -1.132,-5.546 -3.137,-7.552z"/>
    </g>
   </g>
   <g  transform="matrix(0.44280658712722865,0,0,0.44280658712722865,-909.281196472398,-909.9373762182436) " id="svg_27"/>
   <g  transform="matrix(0.44280658712722865,0,0,0.44280658712722865,-909.281196472398,-909.9373762182436) " id="svg_28"/>
   <g  transform="matrix(0.44280658712722865,0,0,0.44280658712722865,-909.281196472398,-909.9373762182436) " id="svg_29"/>
   <g  transform="matrix(0.44280658712722865,0,0,0.44280658712722865,-909.281196472398,-909.9373762182436) " id="svg_30"/>
   <g  transform="matrix(0.44280658712722865,0,0,0.44280658712722865,-909.281196472398,-909.9373762182436) " id="svg_31"/>
   <g  transform="matrix(0.44280658712722865,0,0,0.44280658712722865,-909.281196472398,-909.9373762182436) " id="svg_32"/>
   <g  transform="matrix(0.44280658712722865,0,0,0.44280658712722865,-909.281196472398,-909.9373762182436) " id="svg_33"/>
   <g  transform="matrix(0.44280658712722865,0,0,0.44280658712722865,-909.281196472398,-909.9373762182436) " id="svg_34"/>
   <g  transform="matrix(0.44280658712722865,0,0,0.44280658712722865,-909.281196472398,-909.9373762182436) " id="svg_35"/>
   <g  transform="matrix(0.44280658712722865,0,0,0.44280658712722865,-909.281196472398,-909.9373762182436) " id="svg_36"/>
   <g  transform="matrix(0.44280658712722865,0,0,0.44280658712722865,-909.281196472398,-909.9373762182436) " id="svg_37"/>
   <g  transform="matrix(0.44280658712722865,0,0,0.44280658712722865,-909.281196472398,-909.9373762182436) " id="svg_38"/>
   <g  transform="matrix(0.44280658712722865,0,0,0.44280658712722865,-909.281196472398,-909.9373762182436) " id="svg_39"/>
   <g  transform="matrix(0.44280658712722865,0,0,0.44280658712722865,-909.281196472398,-909.9373762182436) " id="svg_40"/>
   <g  transform="matrix(0.44280658712722865,0,0,0.44280658712722865,-909.281196472398,-909.9373762182436) " id="svg_41"/>
  </g>
 </g>
</svg>